<svg xmlns="http://www.w3.org/2000/svg" width="900" height="430" viewBox="0 0 900 430">
<rect width="100%" height="100%" fill="white"/>
<text x="450.0" y="24" text-anchor="middle" font-size="16" font-family="sans-serif">Round 08: TANGO stress tests, best active terminal probes</text>
<line x1="53" x2="842" y1="372.0" y2="372.0" stroke="#eee" /><text x="48" y="376.0" text-anchor="end" font-size="11">0.000</text><line x1="53" x2="842" y1="309.2" y2="309.2" stroke="#eee" /><text x="48" y="313.2" text-anchor="end" font-size="11">0.220</text><line x1="53" x2="842" y1="246.4" y2="246.4" stroke="#eee" /><text x="48" y="250.4" text-anchor="end" font-size="11">0.440</text><line x1="53" x2="842" y1="183.6" y2="183.6" stroke="#eee" /><text x="48" y="187.6" text-anchor="end" font-size="11">0.660</text><line x1="53" x2="842" y1="120.8" y2="120.8" stroke="#eee" /><text x="48" y="124.8" text-anchor="end" font-size="11">0.881</text><line x1="53" x2="842" y1="58.0" y2="58.0" stroke="#eee" /><text x="48" y="62.0" text-anchor="end" font-size="11">1.101</text>
<line x1="58" x2="842" y1="372" y2="372" stroke="#333"/>
<line x1="58" x2="58" y1="58" y2="372" stroke="#333"/>
<text x="58.0" y="398" transform="rotate(28 58.0,398)" text-anchor="start" font-size="10">balanced_clean</text>
<text x="214.8" y="398" transform="rotate(28 214.8,398)" text-anchor="start" font-size="10">imbalanced_clean</text>
<text x="371.6" y="398" transform="rotate(28 371.6,398)" text-anchor="start" font-size="10">noisy_terminal_1e-3</text>
<text x="528.4" y="398" transform="rotate(28 528.4,398)" text-anchor="start" font-size="10">weak_bias_poor_condition</text>
<text x="685.2" y="398" transform="rotate(28 685.2,398)" text-anchor="start" font-size="10">more_local_steps</text>
<text x="842.0" y="398" transform="rotate(28 842.0,398)" text-anchor="start" font-size="10">high_within_class_variance</text>
<text transform="translate(16,215.0) rotate(-90)" text-anchor="middle" font-size="12">mean squared error</text>
<polyline fill="none" stroke="#1f77b4" stroke-width="2.5" points="58.0,372.0 214.8,371.9 371.6,371.9 528.4,371.9 685.2,371.5 842.0,371.9" />
<circle cx="58.0" cy="372.0" r="4" fill="#1f77b4" />
<circle cx="214.8" cy="371.9" r="4" fill="#1f77b4" />
<circle cx="371.6" cy="371.9" r="4" fill="#1f77b4" />
<circle cx="528.4" cy="371.9" r="4" fill="#1f77b4" />
<circle cx="685.2" cy="371.5" r="4" fill="#1f77b4" />
<circle cx="842.0" cy="371.9" r="4" fill="#1f77b4" />
<polyline fill="none" stroke="#d62728" stroke-width="2.5" points="58.0,295.9 214.8,295.8 371.6,295.9 528.4,295.9 685.2,292.9 842.0,91.6" />
<circle cx="58.0" cy="295.9" r="4" fill="#d62728" />
<circle cx="214.8" cy="295.8" r="4" fill="#d62728" />
<circle cx="371.6" cy="295.9" r="4" fill="#d62728" />
<circle cx="528.4" cy="295.9" r="4" fill="#d62728" />
<circle cx="685.2" cy="292.9" r="4" fill="#d62728" />
<circle cx="842.0" cy="91.6" r="4" fill="#d62728" />
<polyline fill="none" stroke="#2ca02c" stroke-width="2.5" points="58.0,299.8 214.8,299.9 371.6,299.8 528.4,299.8 685.2,299.8 842.0,133.3" />
<circle cx="58.0" cy="299.8" r="4" fill="#2ca02c" />
<circle cx="214.8" cy="299.9" r="4" fill="#2ca02c" />
<circle cx="371.6" cy="299.8" r="4" fill="#2ca02c" />
<circle cx="528.4" cy="299.8" r="4" fill="#2ca02c" />
<circle cx="685.2" cy="299.8" r="4" fill="#2ca02c" />
<circle cx="842.0" cy="133.3" r="4" fill="#2ca02c" />
<rect x="632" y="54" width="225" height="74" fill="white" stroke="#ddd"/>
<circle cx="650" cy="74" r="4" fill="#1f77b4"/><text x="662" y="78" font-size="12">prototype MSE</text>
<circle cx="650" cy="96" r="4" fill="#d62728"/><text x="662" y="100" font-size="12">individual via prototypes</text>
<circle cx="650" cy="118" r="4" fill="#2ca02c"/><text x="662" y="122" font-size="12">within-class floor</text>
</svg>
