<svg xmlns="http://www.w3.org/2000/svg" width="780" height="500" viewBox="0 0 780 500">
<rect width="100%" height="100%" fill="white"/>
<text x="390.0" y="25" text-anchor="middle" font-family="sans-serif" font-size="18">Round 06 Stage-2 Recovery: corrupt50</text>
<line x1="70" y1="435" x2="755" y2="435" stroke="#333"/>
<line x1="70" y1="45" x2="70" y2="435" stroke="#333"/>
<line x1="70" y1="421.5" x2="755" y2="421.5" stroke="#333" stroke-dasharray="5,5" opacity="0.6"/>
<text x="750" y="415.5" text-anchor="end" font-family="sans-serif" font-size="11">MSE=0.10</text>
<line x1="70.0" y1="435" x2="70.0" y2="440" stroke="#333"/>
<text x="70.0" y="457" text-anchor="middle" font-family="sans-serif" font-size="11">1.00</text>
<line x1="252.7" y1="435" x2="252.7" y2="440" stroke="#333"/>
<text x="252.7" y="457" text-anchor="middle" font-family="sans-serif" font-size="11">0.80</text>
<line x1="435.3" y1="435" x2="435.3" y2="440" stroke="#333"/>
<text x="435.3" y="457" text-anchor="middle" font-family="sans-serif" font-size="11">0.60</text>
<line x1="618.0" y1="435" x2="618.0" y2="440" stroke="#333"/>
<text x="618.0" y="457" text-anchor="middle" font-family="sans-serif" font-size="11">0.40</text>
<line x1="755.0" y1="435" x2="755.0" y2="440" stroke="#333"/>
<text x="755.0" y="457" text-anchor="middle" font-family="sans-serif" font-size="11">0.25</text>
<line x1="65" y1="421.5" x2="70" y2="421.5" stroke="#333"/>
<text x="62" y="425.5" text-anchor="end" font-family="sans-serif" font-size="11">0.1</text>
<line x1="65" y1="355.1" x2="70" y2="355.1" stroke="#333"/>
<text x="62" y="359.1" text-anchor="end" font-family="sans-serif" font-size="11">0.3</text>
<line x1="65" y1="282.3" x2="70" y2="282.3" stroke="#333"/>
<text x="62" y="286.3" text-anchor="end" font-family="sans-serif" font-size="11">1</text>
<line x1="65" y1="215.8" x2="70" y2="215.8" stroke="#333"/>
<text x="62" y="219.8" text-anchor="end" font-family="sans-serif" font-size="11">3</text>
<line x1="65" y1="143.0" x2="70" y2="143.0" stroke="#333"/>
<text x="62" y="147.0" text-anchor="end" font-family="sans-serif" font-size="11">10</text>
<text x="412.5" y="482" text-anchor="middle" font-family="sans-serif" font-size="13">Observed batch-average fraction</text>
<text x="18" y="240.0" transform="rotate(-90 18 240.0)" text-anchor="middle" font-family="sans-serif" font-size="13">Snapshot MSE</text>
<polyline fill="none" stroke="#4C78A8" stroke-width="2.3" points="70.0,220.7 252.7,45.0 435.3,199.5 618.0,262.7 755.0,275.4"/>
<circle cx="70.0" cy="220.7" r="3.5" fill="#4C78A8"/>
<circle cx="252.7" cy="45.0" r="3.5" fill="#4C78A8"/>
<circle cx="435.3" cy="199.5" r="3.5" fill="#4C78A8"/>
<circle cx="618.0" cy="262.7" r="3.5" fill="#4C78A8"/>
<circle cx="755.0" cy="275.4" r="3.5" fill="#4C78A8"/>
<line x1="585" y1="57" x2="610" y2="57" stroke="#4C78A8" stroke-width="2.3"/>
<text x="617" y="61" font-family="sans-serif" font-size="11">SHARD fixed LS</text>
<polyline fill="none" stroke="#F58518" stroke-width="2.3" points="70.0,317.1 252.7,313.4 435.3,311.0 618.0,300.2 755.0,296.6"/>
<circle cx="70.0" cy="317.1" r="3.5" fill="#F58518"/>
<circle cx="252.7" cy="313.4" r="3.5" fill="#F58518"/>
<circle cx="435.3" cy="311.0" r="3.5" fill="#F58518"/>
<circle cx="618.0" cy="300.2" r="3.5" fill="#F58518"/>
<circle cx="755.0" cy="296.6" r="3.5" fill="#F58518"/>
<line x1="585" y1="74" x2="610" y2="74" stroke="#F58518" stroke-width="2.3"/>
<text x="617" y="78" font-family="sans-serif" font-size="11">GARD conditional</text>
<polyline fill="none" stroke="#54A24B" stroke-width="2.3" points="70.0,316.5 252.7,300.6 435.3,309.9 618.0,295.6 755.0,292.1"/>
<circle cx="70.0" cy="316.5" r="3.5" fill="#54A24B"/>
<circle cx="252.7" cy="300.6" r="3.5" fill="#54A24B"/>
<circle cx="435.3" cy="309.9" r="3.5" fill="#54A24B"/>
<circle cx="618.0" cy="295.6" r="3.5" fill="#54A24B"/>
<circle cx="755.0" cy="292.1" r="3.5" fill="#54A24B"/>
<line x1="585" y1="91" x2="610" y2="91" stroke="#54A24B" stroke-width="2.3"/>
<text x="617" y="95" font-family="sans-serif" font-size="11">JASPER joint soft</text>
</svg>