<svg xmlns="http://www.w3.org/2000/svg" width="960" height="460" viewBox="0 0 960 460">
<rect width="100%" height="100%" fill="white"/>
<text x="480.0" y="22" text-anchor="middle" font-size="14" font-family="sans-serif">Round 14: prototype MSE median (JOINT uniform vs DOPT)</text>
<line x1="62" x2="898" y1="398" y2="398" stroke="#333"/>
<line x1="62" x2="62" y1="62" y2="398" stroke="#333"/>
<text x="62.0" y="430" transform="rotate(22 62.0,430)" text-anchor="start" font-size="10">minibatch_sgd</text>
<text x="340.7" y="430" transform="rotate(22 340.7,430)" text-anchor="start" font-size="10">frozen_mlp_minibatch</text>
<text x="619.3" y="430" transform="rotate(22 619.3,430)" text-anchor="start" font-size="10">minibatch_label_noise</text>
<text x="898.0" y="430" transform="rotate(22 898.0,430)" text-anchor="start" font-size="10">minibatch_terminal_noise</text>
<polyline fill="none" stroke="#2ca02c" stroke-width="2.2" points="62.0,395.0 340.7,373.9 619.3,394.6 898.0,395.0"/>
<circle cx="62.0" cy="395.0" r="3.5" fill="#2ca02c"/>
<circle cx="340.7" cy="373.9" r="3.5" fill="#2ca02c"/>
<circle cx="619.3" cy="394.6" r="3.5" fill="#2ca02c"/>
<circle cx="898.0" cy="395.0" r="3.5" fill="#2ca02c"/><polyline fill="none" stroke="#1f77b4" stroke-width="2.2" points="62.0,324.9 340.7,247.5 619.3,332.2 898.0,324.9"/>
<circle cx="62.0" cy="324.9" r="3.5" fill="#1f77b4"/>
<circle cx="340.7" cy="247.5" r="3.5" fill="#1f77b4"/>
<circle cx="619.3" cy="332.2" r="3.5" fill="#1f77b4"/>
<circle cx="898.0" cy="324.9" r="3.5" fill="#1f77b4"/><polyline fill="none" stroke="#ff7f0e" stroke-width="2.2" points="62.0,324.0 340.7,246.1 619.3,331.0 898.0,324.0"/>
<circle cx="62.0" cy="324.0" r="3.5" fill="#ff7f0e"/>
<circle cx="340.7" cy="246.1" r="3.5" fill="#ff7f0e"/>
<circle cx="619.3" cy="331.0" r="3.5" fill="#ff7f0e"/>
<circle cx="898.0" cy="324.0" r="3.5" fill="#ff7f0e"/><polyline fill="none" stroke="#d62728" stroke-width="2.2" points="62.0,199.4 340.7,105.8 619.3,157.0 898.0,198.9"/>
<circle cx="62.0" cy="199.4" r="3.5" fill="#d62728"/>
<circle cx="340.7" cy="105.8" r="3.5" fill="#d62728"/>
<circle cx="619.3" cy="157.0" r="3.5" fill="#d62728"/>
<circle cx="898.0" cy="198.9" r="3.5" fill="#d62728"/><polyline fill="none" stroke="#8c564b" stroke-width="2.2" points="62.0,360.9 340.7,298.4 619.3,359.5 898.0,360.9"/>
<circle cx="62.0" cy="360.9" r="3.5" fill="#8c564b"/>
<circle cx="340.7" cy="298.4" r="3.5" fill="#8c564b"/>
<circle cx="619.3" cy="359.5" r="3.5" fill="#8c564b"/>
<circle cx="898.0" cy="360.9" r="3.5" fill="#8c564b"/>
<circle cx="710" cy="54" r="4" fill="#2ca02c"/><text x="722" y="58" font-size="10">TANGO-MB</text>
<circle cx="710" cy="72" r="4" fill="#1f77b4"/><text x="722" y="76" font-size="10">JOINT (uniform)</text>
<circle cx="710" cy="90" r="4" fill="#ff7f0e"/><text x="722" y="94" font-size="10">DOPT</text>
<circle cx="710" cy="108" r="4" fill="#d62728"/><text x="722" y="112" font-size="10">passive</text>
<circle cx="710" cy="126" r="4" fill="#8c564b"/><text x="722" y="130" font-size="10">scale-only</text>
<text transform="translate(14,230.0) rotate(-90)" text-anchor="middle" font-size="12">prototype MSE (median)</text>
</svg>